<svg width="1956" height="59" viewBox="0 0 1956 59" fill="none" xmlns="http://www.w3.org/2000/svg">
<path d="M891.259 58.5C891.259 42.9848 872.509 28.1051 839.135 17.1343C805.761 6.16338 760.496 1.17136e-06 713.298 0C666.1 -1.17136e-06 620.835 6.16337 587.46 17.1342C554.086 28.1051 535.337 42.9848 535.337 58.5L713.298 58.5H891.259Z" fill="#FFFD80"/>
<path d="M623.058 58.5C623.058 50.8177 618.455 43.2106 609.511 36.113C600.568 29.0155 587.459 22.5665 570.934 17.1343C554.409 11.702 534.791 7.39295 513.199 4.45305C491.608 1.51315 468.467 -3.35805e-07 445.097 0C421.726 3.35805e-07 398.585 1.51315 376.994 4.45305C355.403 7.39295 335.784 11.702 319.259 17.1343C302.734 22.5665 289.626 29.0155 280.682 36.113C271.739 43.2106 267.136 50.8177 267.136 58.5L445.097 58.5H623.058Z" fill="#FFFD80"/>
<path d="M355.922 58.5C355.922 50.8177 351.319 43.2106 342.375 36.113C333.432 29.0155 320.324 22.5665 303.798 17.1343C287.273 11.702 267.655 7.39295 246.064 4.45305C224.472 1.51315 201.331 -3.35805e-07 177.961 0C154.591 3.35805e-07 131.449 1.51315 109.858 4.45305C88.267 7.39295 68.6487 11.702 52.1235 17.1343C35.5983 22.5665 22.4898 29.0155 13.5465 36.113C4.60309 43.2106 -2.04308e-06 50.8177 0 58.5L177.961 58.5H355.922Z" fill="#FFFD80"/>
<path d="M1159.46 58.5C1159.46 50.8177 1154.86 43.2106 1145.91 36.113C1136.97 29.0155 1123.86 22.5665 1107.34 17.1343C1090.81 11.702 1071.19 7.39295 1049.6 4.45305C1028.01 1.51315 1004.87 -3.35805e-07 981.5 0C958.13 3.35805e-07 934.988 1.51315 913.397 4.45305C891.806 7.39295 872.188 11.702 855.663 17.1343C839.137 22.5665 826.029 29.0155 817.086 36.113C808.142 43.2106 803.539 50.8177 803.539 58.5L981.5 58.5H1159.46Z" fill="#FFFD80"/>
<path d="M1687.8 58.5C1687.8 50.8177 1683.19 43.2106 1674.25 36.113C1665.31 29.0155 1652.2 22.5665 1635.67 17.1343C1619.15 11.702 1599.53 7.39295 1577.94 4.45305C1556.35 1.51315 1533.21 -3.35805e-07 1509.84 0C1486.47 3.35805e-07 1463.33 1.51315 1441.73 4.45305C1420.14 7.39295 1400.52 11.702 1384 17.1343C1367.47 22.5665 1354.37 29.0155 1345.42 36.113C1336.48 43.2106 1331.88 50.8177 1331.88 58.5L1509.84 58.5H1687.8Z" fill="#FFFD80"/>
<path d="M1419.6 58.5C1419.6 50.8177 1414.99 43.2106 1406.05 36.113C1397.11 29.0155 1384 22.5665 1367.47 17.1343C1350.95 11.702 1331.33 7.39295 1309.74 4.45305C1288.15 1.51315 1265.01 -3.35805e-07 1241.64 0C1218.27 3.35805e-07 1195.12 1.51315 1173.53 4.45305C1151.94 7.39295 1132.32 11.702 1115.8 17.1343C1099.27 22.5665 1086.16 29.0155 1077.22 36.113C1068.28 43.2106 1063.67 50.8177 1063.67 58.5L1241.64 58.5H1419.6Z" fill="#FFFD80"/>
<path d="M1955.92 58.5C1955.92 50.8177 1951.32 43.2106 1942.38 36.113C1933.43 29.0155 1920.32 22.5665 1903.8 17.1343C1887.27 11.702 1867.65 7.39295 1846.06 4.45305C1824.47 1.51315 1801.33 -3.35805e-07 1777.96 0C1754.59 3.35805e-07 1731.45 1.51315 1709.86 4.45305C1688.27 7.39295 1668.65 11.702 1652.12 17.1343C1635.6 22.5665 1622.49 29.0155 1613.55 36.113C1604.6 43.2106 1600 50.8177 1600 58.5L1777.96 58.5H1955.92Z" fill="#FFFD80"/>
</svg>
